<svg width="64" height="64" viewBox="0 0 64 64" fill="none" xmlns="http://www.w3.org/2000/svg" class="size-[50%]" stroke-width="1.3"><g clip-path="url(#clip0_1482_13574)"><path d="M17.0285 46.575L30.7316 52.676" stroke="currentColor" stroke-width="1.5" stroke-linecap="round" stroke-linejoin="round"></path><path d="M26.3205 44.1442L30.5912 34.552" stroke="currentColor" stroke-width="1.5" stroke-linecap="round" stroke-linejoin="round"></path><path d="M27.5504 26.6301L30.5912 34.5518L38.5129 31.511" stroke="currentColor" stroke-width="1.5" stroke-linecap="round" stroke-linejoin="round"></path><path d="M20.3926 34.7319C19.3301 32.7341 18.7343 30.5214 18.6497 28.2602C18.5651 25.9991 18.994 23.7481 19.9042 21.6765C23.1699 14.231 31.9105 10.7153 39.4122 13.8501C42.3209 15.0616 44.7742 17.1583 46.4241 19.8428C48.074 22.5273 48.8366 25.6631 48.6037 28.8055C48.3709 31.9478 47.1544 34.937 45.1269 37.349C43.0993 39.7609 40.3637 41.4732 37.3082 42.2427C36.6364 42.4076 36.011 42.7232 35.4794 43.1657C34.9477 43.6083 34.5238 44.166 34.2397 44.7967L33.7822 45.8245C33.6204 46.1879 33.3208 46.4722 32.9494 46.6147C32.578 46.7573 32.1652 46.7465 31.8017 46.5847L20.8392 41.7038C20.4758 41.542 20.1915 41.2425 20.0489 40.8711C19.9064 40.4997 19.9172 40.0868 20.079 39.7234L20.5366 38.6957C20.8155 38.0675 20.9475 37.384 20.9225 36.6972C20.8975 36.0103 20.7163 35.3382 20.3926 34.7319Z" stroke="currentColor" stroke-width="1.5" stroke-linecap="round" stroke-linejoin="round"></path></g><defs><clipPath id="clip0_1482_13574"><rect width="48" height="48" fill="white" transform="translate(19.648 0.124512) rotate(24)"></rect></clipPath></defs></svg>